Coordinates
version=1
nRows=19
nColumns=24
inDegrees=yes

Units are S.I. units (second, meters, Newtons, ...)
Angles are in degrees.

endheader
time	pelvis_tilt	pelvis_list	pelvis_rotation	pelvis_tx	pelvis_ty	pelvis_tz	hip_flexion_r	hip_adduction_r	hip_rotation_r	knee_angle_r	ankle_angle_r	subtalar_angle_r	mtp_angle_r	hip_flexion_l	hip_adduction_l	hip_rotation_l	knee_angle_l	ankle_angle_l	subtalar_angle_l	mtp_angle_l	lumbar_extension	lumbar_bending	lumbar_rotation
      1.19616667	     -2.75998508	     -0.49710556	    -12.77358649	     -0.03254156	      0.87008195	      0.35384245	    -16.78646507	      2.05064267	      1.18868826	    -10.38522013	     22.89920758	     16.62763354	     11.26649066	     30.59685752	     -5.76357766	    -15.23178479	     -2.49899198	      5.92009856	     -3.06430801	     -0.83613911	     -3.58512738	      2.10389937	     12.78624091
      1.20033333	     -2.88277249	     -0.37971166	    -12.87951693	     -0.02689344	      0.86907403	      0.35377513	    -16.74577489	      1.83047747	      1.20285202	    -10.92646695	     22.86669803	     16.72465867	     11.50460220	     30.84931974	     -5.72485278	    -15.29558040	     -3.14752974	      5.95297505	     -3.07253911	     -0.82675858	     -3.41779775	      1.87425925	     12.91886009
      1.20450000	     -2.95986293	     -0.26669300	    -12.96096135	     -0.02116929	      0.86817206	      0.35365015	    -16.75671975	      1.60504498	      1.16046750	    -11.46627957	     22.78733760	     16.81622284	     11.97505331	     31.05517198	     -5.67023178	    -15.40006458	     -3.84685978	      5.91430117	     -3.09582273	     -0.78826351	     -3.28105551	      1.67097543	     13.04007847
      1.20866667	     -2.96359815	     -0.11716643	    -13.01337321	     -0.01530792	      0.86741962	      0.35347634	    -16.86709866	      1.32791810	      1.09086433	    -11.94679188	     22.50993496	     16.82413856	     15.84001842	     31.13360457	     -5.53053153	    -15.42483926	     -4.47417352	      5.82690616	     -3.23390482	     -0.30319732	     -3.21838050	      1.37565290	     13.10410055
      1.21283333	     -3.02774796	      0.00712907	    -13.05744312	     -0.00945876	      0.86662679	      0.35330550	    -16.90923600	      1.10594342	      1.13563829	    -12.45268587	     22.27713005	     16.71147001	     15.88358185	     31.28570045	     -5.42572184	    -15.40328268	     -5.15847860	      5.70559194	     -3.45098407	     -0.29144517	     -3.08709129	      1.12816046	     13.08199284
      1.21700000	     -3.07714883	      0.15438529	    -13.08574702	     -0.00353878	      0.86589460	      0.35307795	    -16.94559811	      0.85345535	      1.12898918	    -12.99725138	     22.01327736	     16.64740963	     15.95353853	     31.41244178	     -5.28064212	    -15.39040823	     -5.84470945	      5.52464364	     -3.66640368	     -0.27299367	     -2.96643076	      0.85016858	     13.09100391
      1.22116667	     -3.14829469	      0.29614777	    -13.09946028	      0.00238754	      0.86516428	      0.35278277	    -16.92534988	      0.60937164	      1.08737783	    -13.61180571	     21.77545883	     16.63886993	     16.17241809	     31.56525659	     -5.13031141	    -15.33788363	     -6.55097230	      5.24549048	     -3.99832826	     -0.21389131	     -2.82060278	      0.60823276	     13.10790458
      1.22533333	     -3.20719740	      0.46156585	    -13.09590560	      0.00839629	      0.86450245	      0.35246028	    -16.91404403	      0.34231061	      1.04529275	    -14.22727633	     21.45774715	     16.58532786	     16.49013922	     31.68582829	     -4.93593535	    -15.27019096	     -7.22855068	      4.90101600	     -4.36926232	     -0.12881780	     -2.67534079	      0.31414869	     13.08363153
      1.22950000	     -3.21233196	      0.63621915	    -13.07229131	      0.01450711	      0.86396900	      0.35210275	    -16.97213961	      0.05590479	      0.98043500	    -14.81580554	     21.01732512	     16.47149366	     16.60089427	     31.74846296	     -4.71494900	    -15.26304689	     -7.93032250	      4.62201932	     -4.59692006	     -0.10127579	     -2.57460966	     -0.00138502	     13.06057125
      1.23366667	     -3.27290071	      0.82504615	    -13.01851002	      0.02061053	      0.86338865	      0.35164954	    -16.92152973	     -0.23106256	      0.87232642	    -15.49233346	     20.55633258	     16.41038500	     21.14358073	     31.85133427	     -4.44905239	    -15.09826872	     -8.56445020	      4.12540895	     -5.15863862	      1.12090032	     -2.43223493	     -0.32977294	     12.99227971
      1.23783333	     -3.29014106	      0.99929275	    -12.96620045	      0.02677794	      0.86293481	      0.35121383	    -16.93006896	     -0.50754644	      0.80892627	    -16.14989465	     20.03794141	     16.27949147	     21.16144436	     31.93366023	     -4.21283875	    -15.10475106	     -9.29301405	      3.74845053	     -5.40092390	      1.12196847	     -2.32342534	     -0.63074473	     12.95331973
      1.24200000	     -3.41340350	      1.19182778	    -12.89687608	      0.03289752	      0.86235800	      0.35069782	    -16.75964543	     -0.77625264	      0.75110676	    -16.93437408	     19.60318375	     16.20579691	     21.33173517	     32.10663309	     -3.93739742	    -14.88389212	     -9.93957920	      3.16780803	     -6.05103987	      1.15506806	     -2.10672799	     -0.94322529	     12.83642106
      1.24616667	     -3.46951140	      1.40032101	    -12.80217538	      0.03912143	      0.86193278	      0.35012882	    -16.66214376	     -1.07764675	      0.62905822	    -17.70993756	     19.05749980	     16.12744349	     21.63943837	     32.19976432	     -3.61682344	    -14.70082956	    -10.57684107	      2.61892900	     -6.63164780	      1.21530772	     -1.95237875	     -1.28422548	     12.72950463
      1.25033333	     -3.49822830	      1.62657698	    -12.68075908	      0.04542431	      0.86158671	      0.34951147	    -16.58602636	     -1.40350405	      0.45100010	    -18.48762834	     18.38672186	     16.02444205	     25.45986967	     32.27090086	     -3.26350702	    -14.55742720	    -11.23439794	      2.11990615	     -7.09895743	      1.99212332	     -1.82043485	     -1.66868574	     12.64423002
      1.25450000	     -3.58533844	      1.81888715	    -12.56095344	      0.05167628	      0.86121495	      0.34889669	    -16.41799843	     -1.66941078	      0.36394440	    -19.33132659	     17.72272530	     15.86829175	     25.54273905	     32.42610613	     -2.96640155	    -14.42714091	    -11.95126128	      1.60818680	     -7.54573298	      2.00163153	     -1.63890782	     -1.97480936	     12.50473590
      1.25866667	     -3.65565333	      2.03698247	    -12.41649954	      0.05798282	      0.86090687	      0.34821532	    -16.24177075	     -1.96871283	      0.21283211	    -20.21888416	     17.03416132	     15.75607952	     25.72751270	     32.55265206	     -2.61538535	    -14.24466505	    -12.63965893	      1.10309901	     -8.05474295	      2.02277207	     -1.46772668	     -2.32445475	     12.36181526
      1.26283333	     -3.72796983	      2.25955572	    -12.25587000	      0.06431444	      0.86063554	      0.34749511	    -16.03784409	     -2.27180297	      0.04111313	    -21.15090144	     16.30229791	     15.64728742	     26.01757125	     32.68663281	     -2.25174204	    -14.05163562	    -13.34421755	      0.63204325	     -8.54803585	      2.05356335	     -1.29414454	     -2.67773044	     12.21176730
      1.26700000	     -3.75702291	      2.50910724	    -12.07191338	      0.07072698	      0.86046416	      0.34672258	    -15.86582136	     -2.61923686	     -0.20863895	    -22.09210392	     15.45202255	     15.54400458	     30.07599512	     32.76957999	     -1.83840340	    -13.86575146	    -14.04401843	      0.23512266	     -9.00273110	      2.47898433	     -1.16202425	     -3.08833101	     12.09742624
      1.27116667	     -3.83529944	      2.71550830	    -11.88622565	      0.07707863	      0.86027629	      0.34596292	    -15.61240215	     -2.89695416	     -0.37136670	    -23.09732761	     14.60270308	     15.38551683	     30.14721261	     32.93041614	     -1.49216239	    -13.69347252	    -14.81924197	     -0.12389946	     -9.35867757	      2.47947431	     -0.99523156	     -3.41440687	     11.92824015
